<svg width="41" height="41" viewBox="0 0 41 41" fill="none" xmlns="http://www.w3.org/2000/svg">
<path d="M38.4844 31.9844C38.4844 32.8546 38.1387 33.6892 37.5233 34.3046C36.908 34.9199 36.0734 35.2656 35.2031 35.2656H5.67188C4.80163 35.2656 3.96703 34.9199 3.35168 34.3046C2.73633 33.6892 2.39063 32.8546 2.39062 31.9844V13.9375C2.39062 13.0673 2.73633 12.2327 3.35168 11.6173C3.96703 11.002 4.80163 10.6562 5.67188 10.6562H12.2344L15.5156 5.73438H25.3594L28.6406 10.6562H35.2031C36.0734 10.6562 36.908 11.002 37.5233 11.6173C38.1387 12.2327 38.4844 13.0673 38.4844 13.9375V31.9844Z" stroke="currentColor" stroke-width="2" stroke-linecap="round" stroke-linejoin="round"/>
<path d="M20.4375 28.7031C24.0619 28.7031 27 25.765 27 22.1406C27 18.5163 24.0619 15.5781 20.4375 15.5781C16.8131 15.5781 13.875 18.5163 13.875 22.1406C13.875 25.765 16.8131 28.7031 20.4375 28.7031Z" stroke="currentColor" stroke-width="2" stroke-linecap="round" stroke-linejoin="round"/>
</svg>
